<svg xmlns="http://www.w3.org/2000/svg" xmlns:xlink="http://www.w3.org/1999/xlink" id="Слой_1" enable-background="new 0 0 128 128" version="1.1" viewBox="0 0 128 128" xml:space="preserve"><g><g><path fill="#EAF3FB" d="M92.5,104H35.5c-3.1,0-5.7-2.5-5.7-5.7v-74h68.3v74C98.2,101.5,95.6,104,92.5,104z"/></g><g><path fill="#E07044" d="M86.8,81.2H41.2c-6.3,0-11.4-5.1-11.4-11.4V35.7h68.3v34.2C98.2,76.1,93.1,81.2,86.8,81.2z"/></g><g opacity=".2"><g><path fill="#62345B" d="M85.6,24.3V104h6.8c3.1,0,5.7-2.5,5.7-5.7v-74H85.6z"/></g></g><g opacity=".7"><path fill="#FFF" d="M38.9,53.3c-1.1,0-2-0.9-2-2V24c0-1.1,0.9-2,2-2s2,0.9,2,2v27.3C40.9,52.4,40,53.3,38.9,53.3z"/></g><g><path fill="#62345B" d="M92.5,106H35.5c-4.2,0-7.7-3.5-7.7-7.7v-74c0-1.1,0.9-2,2-2h68.3c1.1,0,2,0.9,2,2v74 C100.2,102.5,96.7,106,92.5,106z M31.8,26.3v72c0,2,1.7,3.7,3.7,3.7h56.9c2,0,3.7-1.7,3.7-3.7v-72H31.8z"/></g><g opacity=".5"><path fill="#FFF" d="M50.8,78l-7-9c-1.9-2.5-1.5-6.1,1-8l9-7c2.5-1.9,6.1-1.5,8,1l7,9c1.9,2.5,1.5,6.1-1,8l-9,7 C56.3,80.9,52.7,80.5,50.8,78z"/></g><g opacity=".5"><path fill="#FFF" d="M51.6,42.4l4-10.7c1.1-2.9,4.4-4.4,7.3-3.3l10.6,4c2.9,1.1,4.4,4.4,3.3,7.3l-4,10.7 c-1.1,2.9-4.4,4.4-7.3,3.3l-10.6-4C52,48.6,50.5,45.3,51.6,42.4z"/></g><g opacity=".5"><path fill="#FFF" d="M91.4,69.9l-10.5,4.4c-2.9,1.2-6.2-0.2-7.4-3.1L69,60.7c-1.2-2.9,0.2-6.2,3.1-7.4l10.5-4.4 c2.9-1.2,6.2,0.2,7.4,3.1l4.4,10.5C95.6,65.4,94.3,68.7,91.4,69.9z"/></g></g></svg>