<svg xmlns="http://www.w3.org/2000/svg" xmlns:xlink="http://www.w3.org/1999/xlink" width="378" height="249" x="0" y="0" enable-background="new 0 0 378 249" version="1.1" viewBox="0 0 378 249" xml:space="preserve"><style type="text/css">.st0{fill:url(#SVGID_1_)}.st1{fill:url(#comet_1_)}.st2{fill:url(#SVGID_2_)}.st3{fill:url(#SVGID_3_)}.st4{fill:url(#SVGID_4_)}.st5{fill:url(#SVGID_5_)}.st6{fill:#1b1b1b}.st7{fill:#171717}.st8{fill:#fff}.st9{opacity:.8;fill:url(#SVGID_6_)}.st10{opacity:.62;fill:url(#SVGID_7_)}.st11{opacity:.8;fill:url(#SVGID_8_)}.st12{opacity:.62;fill:url(#SVGID_9_)}.st13{opacity:.8;fill:url(#SVGID_10_)}.st14{opacity:.62;fill:url(#SVGID_11_)}.st15{opacity:.52;fill:url(#SVGID_12_)}.st16{opacity:.62;fill:url(#SVGID_13_)}.st17{opacity:.52;fill:url(#SVGID_14_)}.st18{opacity:.62;fill:url(#SVGID_15_)}.st19{fill:url(#SVGID_16_)}.st20{fill:url(#SVGID_17_)}.st21{fill:url(#moonglow_1_)}.st22{fill:url(#pagodaglow_1_)}.st23{fill:url(#SVGID_18_)}.st24{fill:url(#SVGID_19_)}.st25{fill:url(#SVGID_20_)}.st26{fill:url(#SVGID_21_)}.st27{fill:#141414}.st28{fill:#484848}.st29{fill:#353535}.st30{fill:url(#SVGID_22_)}.st31{fill:url(#SVGID_23_)}.st32{fill:url(#SVGID_24_)}.st33{fill:url(#before_2_)}.st34{clip-path:url(#before_3_);fill:url(#SVGID_25_)}.st35{fill:url(#SVGID_26_)}.st36{fill:url(#SVGID_27_)}.st37{fill:url(#SVGID_28_)}.st38{fill:url(#SVGID_29_)}.st39{fill:url(#SVGID_30_)}.st40{fill:url(#SVGID_31_)}.st41{fill:url(#SVGID_32_)}.st42{opacity:.45;fill:#fff}.st43{fill:#191919}</style><g id="background"><linearGradient id="SVGID_1_" x1="188.879" x2="188.879" y1="249.667" y2="-2" gradientUnits="userSpaceOnUse"><stop offset="0" stop-color="#575757"/><stop offset=".235" stop-color="#4B4B4B"/><stop offset=".675" stop-color="#393939"/><stop offset="1" stop-color="#333"/></linearGradient><rect width="382.4" height="251.7" x="-2.3" y="-2" class="st0"/><linearGradient id="comet_1_" x1="59.048" x2="81.104" y1="30.06" y2="17.326" gradientUnits="userSpaceOnUse"><stop offset="0" stop-color="#999" stop-opacity=".1"/><stop offset=".101" stop-color="#8E8E8E" stop-opacity=".26"/><stop offset=".397" stop-color="#737373" stop-opacity=".727"/><stop offset=".57" stop-color="#696969"/><stop offset=".995" stop-color="#FFF"/></linearGradient><path id="comet" d="M93.5,39c0.3-2.5-47-30.6-47-30.6S93.2,41.5,93.5,39" class="st1"/></g><g id="midground"><radialGradient id="SVGID_2_" cx="291" cy="184.031" r="79.941" gradientUnits="userSpaceOnUse"><stop offset="0" stop-color="#242424"/><stop offset="1" stop-color="#303030"/></radialGradient><path d="M380.5,192.5c-10-2.1-22.1-3.4-34.2-1.5c-27.7,4.2-49.6-0.4-60.6,6.2l94.7,1.9V192.5z" class="st2"/><linearGradient id="SVGID_3_" x1="164.981" x2="403.667" y1="194.58" y2="194.58" gradientUnits="userSpaceOnUse"><stop offset="0" stop-color="#404040"/><stop offset="1" stop-color="#303030"/></linearGradient><path d="M380.5,192.5c-10-2.1-22.1-3.4-34.2-1.5c-27.7,4.2-49.6-0.4-60.6,6.2l94.7,1.9V192.5z" class="st3"/><radialGradient id="SVGID_4_" cx="291" cy="184.031" r="79.941" gradientUnits="userSpaceOnUse"><stop offset="0" stop-color="#242424"/><stop offset="1" stop-color="#303030"/></radialGradient><path d="M380.5,192.5l-1-23.7c-9.5,0.6-17.8,2.2-17.8,2.2l-6-0.7l-176.7,9l85.7,17.3l21.1,0.4 c10.9-6.6,32.9-1.9,60.6-6.2C358.4,189.2,370.5,190.4,380.5,192.5z" class="st4"/><linearGradient id="SVGID_5_" x1="164.981" x2="403.667" y1="223.755" y2="223.755" gradientUnits="userSpaceOnUse"><stop offset="0" stop-color="#404040"/><stop offset="1" stop-color="#303030"/></linearGradient><path d="M285.8,197.2c-0.3,0.2-0.5,0.3-0.8,0.5c-10.7,7.3-28-0.7-51.3,10c-23.3,10.7-68,12-68.7,14.7 c-0.7,2.7,16.3,28,16.3,28l199.2-0.3v-51L285.8,197.2z" class="st5"/><path d="M126,172c0,0,67.3-9.3,80.7-7c13.3,2.3,35,6,35.3,3.3c0.3-2.7,12.3-2.3,23.3-0.3c11,2,17.3,2.7,36,1.7 c18.7-1,18.3-2.3,41.3,0.7s-209.3,10.3-209.3,10.3L126,172z" class="st6"/><path id="top" d="M53.5,48.7c0,0,0.1,0.8-0.5,2.2c-0.5,1.2-2.5,1-0.5,1.2s-1-2.5,0,0s-2.3,2.8,1,2.5s-2.2,1.2-1,1.7 s-3,2.2-0.8,2.2c2.2,0-3.7,1.7-0.8,1.5c2.8-0.2-3.2,1.7,0.2,1.5c3.3-0.2-4.2,2.7-0.7,2.2s-3.5,2.2-0.2,2c3.3-0.2-4.3,1.3-0.7,1.3 s-3.2,1.7-0.3,1.7c2.8,0-2.2,1.7,0.5,1.7c2.7,0-0.5,1.3,0.8,1.3S49,73,51.2,73c2.2,0,3.7-3,2.2-2.8c-1.5,0.2,5.2,0.2,1.5-0.2 c-3.7-0.3,1.7-2.2-0.8-1.8c-2.5,0.3,3.8-1.7-1-1.7s4-0.5,1.8-0.8c-2.2-0.3,3.2-1.5-0.2-1.5c-3.3,0,3-1.7,0-1.7s2.3-1.5-0.3-1.8 c-2.7-0.3,1.2-1.7-0.2-2.2c-1.3-0.5-0.2-2-0.2-2s3-3.3,1.5-3.2c-1.5,0.2,0.8-2.5-0.8-2.5C53,50.8,53.5,48.7,53.5,48.7z" class="st7"/><g id="pagoda"><image width="131" height="131" opacity=".75" overflow="visible" transform="matrix(1 0 0 1 -11 63)" xlink:href="DEC895D6A408354F.png"/><g><g><g><path d="M4,166.8l-6.2-0.3l0.2-10.2c0,0,8.5,8.1,19.9,7.8c6.5-0.1,59.8-0.8,59.8-0.8s13.5-2.1,18.4-4.4 c0,0,4.1,3-3.6,7.7l-3.7,0.7l-12.7,2.3L14,170L4,166.8z" class="st8"/><radialGradient id="SVGID_6_" cx="47.884" cy="168.372" r="16.511" gradientTransform="matrix(1.9201 -8.197436e-02 -4.531953e-02 0.4617 -42.1746 91.8185)" gradientUnits="userSpaceOnUse"><stop offset="0" stop-color="#6E6E6E"/><stop offset=".204" stop-color="#717171" stop-opacity=".796"/><stop offset=".368" stop-color="#7B7B7B" stop-opacity=".632"/><stop offset=".519" stop-color="#8C8C8C" stop-opacity=".481"/><stop offset=".662" stop-color="#A4A4A4" stop-opacity=".338"/><stop offset=".8" stop-color="#C3C3C3" stop-opacity=".2"/><stop offset=".931" stop-color="#E8E8E8" stop-opacity=".069"/><stop offset="1" stop-color="#FFF" stop-opacity="0"/></radialGradient><path d="M9.2,170.9l-10-8.7c0,0,20.5,3.6,41.5,2.7c0,0,39.3-0.1,44-1.3c0,0-8.9,6.6-13.3,6.5 C64.6,169.9,10.7,171.9,9.2,170.9z" class="st9"/><linearGradient id="SVGID_7_" x1="48.954" x2="48.954" y1="181.988" y2="157.233" gradientTransform="matrix(1.4207 -0.1199 6.219003e-02 0.7367 -33.1535 37.6183)" gradientUnits="userSpaceOnUse"><stop offset="0" stop-color="#E7E7E7"/><stop offset=".097" stop-color="#C6C6C6"/><stop offset=".265" stop-color="#929292"/><stop offset=".429" stop-color="#686868"/><stop offset=".588" stop-color="#474747"/><stop offset=".739" stop-color="#2F2F2F"/><stop offset=".88" stop-color="#212121"/><stop offset="1" stop-color="#1C1C1C"/></linearGradient><path d="M17.5,150c0,0,45.6-1.1,56.2,0.8l16.3,8.6c0,0,3.3,0.6,6.1-0.4c0,0-10.6,4.5-22.8,4.5L20,163.9 c0,0-18.4-1.4-22-8.5C-2,155.3-4.3,161.5,17.5,150z" class="st10"/></g><g><path d="M10.7,152.3l-5.3-5.2l-2.8-11.5c0,0,6.2,8.2,20.8,7.8c5.7-0.1,51.8,1.5,51.8,1.5s11.7-1.5,16-3.5 c0,0,0.9,3.1-5.8,7.2l-7,4.7l-4.7-2.5L17.5,150L10.7,152.3z" class="st8"/><radialGradient id="SVGID_8_" cx="48.479" cy="145.485" r="16.511" gradientTransform="matrix(1.6645 -6.612564e-03 -5.105457e-02 0.4378 -28.9706 82.4332)" gradientUnits="userSpaceOnUse"><stop offset="0" stop-color="#6E6E6E"/><stop offset=".204" stop-color="#717171" stop-opacity=".796"/><stop offset=".368" stop-color="#7B7B7B" stop-opacity=".632"/><stop offset=".519" stop-color="#8C8C8C" stop-opacity=".481"/><stop offset=".662" stop-color="#A4A4A4" stop-opacity=".338"/><stop offset=".8" stop-color="#C3C3C3" stop-opacity=".2"/><stop offset=".931" stop-color="#E8E8E8" stop-opacity=".069"/><stop offset="1" stop-color="#FFF" stop-opacity="0"/></radialGradient><path d="M15.6,149.6L7.2,141c0,0,17.6,4.2,35.9,4.1c0,0,34,1.4,38.1,0.4c0,0-7.8,6-11.7,5.7 C63.7,150.7,16.9,150.6,15.6,149.6z" class="st11"/><linearGradient id="SVGID_9_" x1="48.406" x2="48.406" y1="154.121" y2="131.727" gradientTransform="matrix(1.2331 -6.132071e-02 3.498619e-02 0.7035 -17.614 41.1536)" gradientUnits="userSpaceOnUse"><stop offset="0" stop-color="#E7E7E7"/><stop offset=".097" stop-color="#C6C6C6"/><stop offset=".265" stop-color="#929292"/><stop offset=".429" stop-color="#686868"/><stop offset=".588" stop-color="#474747"/><stop offset=".739" stop-color="#2F2F2F"/><stop offset=".88" stop-color="#212121"/><stop offset="1" stop-color="#1C1C1C"/></linearGradient><path d="M20.4,132.2c0,0,45.9,1.1,55,3.3l10.7,6.5c0,0,2.8,0.7,5.3-0.2c0,0-9.3,3.9-19.9,3.4l-46.2-1.6 c0,0-17.6-0.5-22.6-7.6C2.8,136,6.1,139.7,20.4,132.2z" class="st12"/></g><g><path d="M10.3,136.3L8.5,128l0.8-6l1.7-5.3c0,0,6.8,5.1,12.4,5.6s51.8,4.9,51.8,4.9s6.7,1,11.1-1.7 c0,0,4.5,0-2.3,5.5l-8.7,4.2l-8.3,0.7l-46.5-4L10.3,136.3z" class="st8"/><radialGradient id="SVGID_10_" cx="51.687" cy="126.07" r="15.706" gradientTransform="matrix(1.6643 8.081675e-02 -6.264670e-02 0.6183 -29.0878 46.5769)" gradientUnits="userSpaceOnUse"><stop offset="0" stop-color="#6E6E6E"/><stop offset=".204" stop-color="#717171" stop-opacity=".796"/><stop offset=".368" stop-color="#7B7B7B" stop-opacity=".632"/><stop offset=".519" stop-color="#8C8C8C" stop-opacity=".481"/><stop offset=".662" stop-color="#A4A4A4" stop-opacity=".338"/><stop offset=".8" stop-color="#C3C3C3" stop-opacity=".2"/><stop offset=".931" stop-color="#E8E8E8" stop-opacity=".069"/><stop offset="1" stop-color="#FFF" stop-opacity="0"/></radialGradient><path d="M19,130.8l-5.7-9.2c0,0,15,3.3,33.2,4.2c0,0,33.9,3.8,38.1,2.7c0,0-8,8-11.8,7.4 C67,135,20.2,132.3,19,130.8z" class="st13"/><linearGradient id="SVGID_11_" x1="49.908" x2="49.908" y1="127.609" y2="106.347" gradientTransform="matrix(1.2344 -2.016412e-02 1.633221e-02 0.9999 -15.0452 1.0332)" gradientUnits="userSpaceOnUse"><stop offset="0" stop-color="#E7E7E7"/><stop offset=".097" stop-color="#C6C6C6"/><stop offset=".265" stop-color="#929292"/><stop offset=".429" stop-color="#686868"/><stop offset=".588" stop-color="#474747"/><stop offset=".739" stop-color="#2F2F2F"/><stop offset=".88" stop-color="#212121"/><stop offset="1" stop-color="#1C1C1C"/></linearGradient><path d="M50.9,106.3c0,0,5.3,6.9,14.3,10.5l7.2,1.5c0,0,11.3,8.2,13.8,7.2c0,0-4.4,2.5-14.9,1.3L25.1,122 c0,0-9.3-1.2-14.2-5.3C10.9,116.7,36.4,116.3,50.9,106.3z" class="st14"/></g><g><path d="M14.5,118.5l-0.8-9.1l1.7-6.4l1.4-5.3c0,0,5.7,5.1,10.5,5.6c4.8,0.5,43.8,5,43.8,5s7.6,0.3,11.3-2.4 c0,0,3.5,1.5-2.3,7l-7.8,5.5l-8.2-0.9l-37.3-3.2L14.5,118.5z" class="st8"/><radialGradient id="SVGID_12_" cx="51.906" cy="110.72" r="15.703" gradientTransform="matrix(1.4089 8.498926e-02 -5.147311e-02 0.6181 -18.3192 36.8307)" gradientUnits="userSpaceOnUse"><stop offset="0" stop-color="#6E6E6E"/><stop offset=".204" stop-color="#717171" stop-opacity=".796"/><stop offset=".368" stop-color="#7B7B7B" stop-opacity=".632"/><stop offset=".519" stop-color="#8C8C8C" stop-opacity=".481"/><stop offset=".662" stop-color="#A4A4A4" stop-opacity=".338"/><stop offset=".8" stop-color="#C3C3C3" stop-opacity=".2"/><stop offset=".931" stop-color="#E8E8E8" stop-opacity=".069"/><stop offset="1" stop-color="#FFF" stop-opacity="0"/></radialGradient><path d="M23.7,111.7l-4.9-9.2c0,0,12.7,3.4,28.1,4.3c0,0,28.7,3.9,32.3,2.8c0,0-6.7,7.3-10,7.4 C65.9,117,24.9,114.2,23.7,111.7z" class="st15"/><linearGradient id="SVGID_13_" x1="51.13" x2="51.13" y1="108.54" y2="87.35" gradientTransform="matrix(1.0448 -1.706602e-02 1.633238e-02 0.9999 -5.4479 0.8764)" gradientUnits="userSpaceOnUse"><stop offset="0" stop-color="#E7E7E7"/><stop offset=".097" stop-color="#C6C6C6"/><stop offset=".265" stop-color="#929292"/><stop offset=".429" stop-color="#686868"/><stop offset=".588" stop-color="#474747"/><stop offset=".739" stop-color="#2F2F2F"/><stop offset=".88" stop-color="#212121"/><stop offset="1" stop-color="#1C1C1C"/></linearGradient><path d="M50.6,87.3c0,0,4.5,6.9,12.1,10.5l8.1,4.6c0,0,9.4,4.4,11.6,3.4c0,0-5.6,3.3-14.5,2l-39-4.9 c0,0-7.9-1.3-12.1-5.4C16.8,97.6,38.4,97.2,50.6,87.3z" class="st16"/></g><g><path d="M24.2,97.5l-0.5-7.7l2.5-9.8c0,0,4.3,4.3,8,4.8c3.7,0.5,33.5,4.8,33.5,4.8s5.8,0.3,8.7-1.8 c0,0,2.7,1.3-1.8,5.8l-6.7,7l-5.7-3.3l-28.5-3.2L24.2,97.5z" class="st8"/><radialGradient id="SVGID_14_" cx="51.167" cy="90.833" r="15.703" gradientTransform="matrix(1.0779 9.068909e-02 -4.715262e-02 0.5183 -0.1202 38.865)" gradientUnits="userSpaceOnUse"><stop offset="0" stop-color="#6E6E6E"/><stop offset=".204" stop-color="#717171" stop-opacity=".796"/><stop offset=".368" stop-color="#7B7B7B" stop-opacity=".632"/><stop offset=".519" stop-color="#8C8C8C" stop-opacity=".481"/><stop offset=".662" stop-color="#A4A4A4" stop-opacity=".338"/><stop offset=".8" stop-color="#C3C3C3" stop-opacity=".2"/><stop offset=".931" stop-color="#E8E8E8" stop-opacity=".069"/><stop offset="1" stop-color="#FFF" stop-opacity="0"/></radialGradient><path d="M31.3,92l-3.6-7.8c0,0,9.7,3,21.5,4c0,0,22,3.6,24.7,2.8c0,0-5.2,6.1-7.8,6.1C63.6,97,32.2,94.1,31.3,92z" class="st17"/><linearGradient id="SVGID_15_" x1="51.25" x2="51.25" y1="89.629" y2="71.833" gradientUnits="userSpaceOnUse"><stop offset="0" stop-color="#E7E7E7"/><stop offset=".097" stop-color="#C6C6C6"/><stop offset=".265" stop-color="#929292"/><stop offset=".429" stop-color="#686868"/><stop offset=".588" stop-color="#474747"/><stop offset=".739" stop-color="#2F2F2F"/><stop offset=".88" stop-color="#212121"/><stop offset="1" stop-color="#1C1C1C"/></linearGradient><path d="M52.2,71.8c0,0,3.3,5.8,9.2,9l6.2,4c0,0,7.2,3.8,8.8,3c0,0-4.3,2.7-11.2,1.5l-29.8-4.7c0,0-6-1.2-9.2-4.7 C26.2,80,42.7,80,52.2,71.8z" class="st18"/></g></g></g></g><radialGradient id="SVGID_16_" cx="26.667" cy="108.264" r="8.357" gradientUnits="userSpaceOnUse"><stop offset="0" stop-color="#6E6E6E"/><stop offset=".204" stop-color="#717171" stop-opacity=".796"/><stop offset=".368" stop-color="#7B7B7B" stop-opacity=".632"/><stop offset=".519" stop-color="#8C8C8C" stop-opacity=".481"/><stop offset=".662" stop-color="#A4A4A4" stop-opacity=".338"/><stop offset=".8" stop-color="#C3C3C3" stop-opacity=".2"/><stop offset=".931" stop-color="#E8E8E8" stop-opacity=".069"/><stop offset="1" stop-color="#FFF" stop-opacity="0"/></radialGradient><polygon points="18.9 102.5 16.3 114 35 113 37 107.3" class="st19"/><linearGradient id="SVGID_17_" x1="5.523" x2="183.639" y1="270.793" y2="205.964" gradientUnits="userSpaceOnUse"><stop offset="0" stop-color="#1F1F1F"/><stop offset="1" stop-color="#303030"/></linearGradient><path d="M-2.2,249.7c0,0,37.3-49,59.1-45s47-21.7,64.1-13.7s33.5-3.7,45.1,13.3c11.6,17,33.5,45.7,33.5,45.7 L-2.2,249.7z" class="st20"/><radialGradient id="moonglow_1_" cx="261.667" cy="36" r="26.555" gradientUnits="userSpaceOnUse"><stop offset=".269" stop-color="#FFF" stop-opacity=".6"/><stop offset="1" stop-color="#454545" stop-opacity="0"/></radialGradient><circle id="moonglow" cx="261.7" cy="36" r="26.6" class="st21"/><path d="M263.5,41.7c-4.1,0-7.4-3.3-7.4-7.4c0-2,0.8-3.7,2-5.1c-2.8,1.3-4.8,4.2-4.8,7.5c0,4.6,3.7,8.3,8.3,8.3 c4,0,7.3-2.9,8.1-6.6C268.4,40.3,266.1,41.7,263.5,41.7z" class="st8"/><radialGradient id="pagodaglow_1_" cx="47.47" cy="109.032" r="51.516" gradientUnits="userSpaceOnUse"><stop offset=".269" stop-color="#FFF" stop-opacity=".6"/><stop offset="1" stop-color="#454545" stop-opacity="0"/></radialGradient><circle id="pagodaglow" cx="47.5" cy="109" r="51.5" class="st22"/><g id="cow2"><linearGradient id="SVGID_18_" x1="338.726" x2="333.093" y1="195.169" y2="185.413" gradientUnits="userSpaceOnUse"><stop offset="0" stop-color="#999"/><stop offset=".101" stop-color="#8E8E8E"/><stop offset=".397" stop-color="#737373"/><stop offset=".57" stop-color="#696969"/><stop offset=".995" stop-color="#949494"/></linearGradient><polygon points="328.2 188.9 329.2 187.7 340.9 186.8 340.6 191.8 339.8 194.5 339.3 194.6 339 192.1 336.2 192.6 333.8 192.4 333.7 194.1 333.4 194.7 332.2 191.6 330.7 189.8 329.8 189.7 328.9 190.3" class="st23"/><linearGradient id="SVGID_19_" x1="341.591" x2="341.591" y1="192.699" y2="186.848" gradientUnits="userSpaceOnUse"><stop offset="0" stop-color="#FFF"/><stop offset=".023" stop-color="#F8F8F8"/><stop offset=".24" stop-color="#BBB"/><stop offset=".425" stop-color="#8E8E8E"/><stop offset=".568" stop-color="#737373"/><stop offset=".651" stop-color="#696969"/><stop offset=".995" stop-color="#FFF"/></linearGradient><path d="M340.9,186.8l1.4,3l-0.4,1.6c0,0,1,0.3,0.1,1c-0.9,0.7-0.7-0.4-0.4-1.2c0.1-0.3,0.4-0.4,0.2-1.2 c-0.3-1.2-1.1-2.6-1.1-2.6L340.9,186.8z" class="st24"/></g><g id="cow3"><linearGradient id="SVGID_20_" x1="353.328" x2="349.457" y1="193.135" y2="186.431" gradientUnits="userSpaceOnUse"><stop offset="0" stop-color="#999"/><stop offset=".101" stop-color="#8E8E8E"/><stop offset=".397" stop-color="#737373"/><stop offset=".57" stop-color="#696969"/><stop offset=".995" stop-color="#949494"/></linearGradient><polygon points="346.1 188.8 346.8 188 354.8 187.4 354.6 190.8 354.1 192.7 353.7 192.8 353.5 191 351.6 191.4 349.9 191.2 349.9 192.4 349.7 192.8 348.8 190.7 347.8 189.4 347.2 189.3 346.6 189.8" class="st25"/><linearGradient id="SVGID_21_" x1="355.297" x2="355.297" y1="191.438" y2="187.417" gradientUnits="userSpaceOnUse"><stop offset="0" stop-color="#FFF"/><stop offset=".023" stop-color="#F8F8F8"/><stop offset=".24" stop-color="#BBB"/><stop offset=".425" stop-color="#8E8E8E"/><stop offset=".568" stop-color="#737373"/><stop offset=".651" stop-color="#696969"/><stop offset=".995" stop-color="#FFF"/></linearGradient><path d="M354.8,187.4l1,2.1l-0.2,1.1c0,0,0.7,0.2,0,0.7c-0.7,0.5-0.5-0.2-0.2-0.8c0.1-0.2,0.3-0.3,0.1-0.8 c-0.2-0.8-0.8-1.8-0.8-1.8L354.8,187.4z" class="st26"/></g><polygon points="242.7 169.5 242.8 171 243.8 171 243.8 169.5" class="st27"/><polygon points="242.8 169.9 242.8 171 243.8 171 243.8 169.8" class="st28"/><path d="M22.3,186.3c2.7-0.5,5.1-1.1,7.2-1.6l29.3-12.7l7-2.2l-68-3.3v11.3C5.3,182.2,16.2,187.6,22.3,186.3z" class="st29"/><linearGradient id="SVGID_22_" x1="-13.499" x2="51.002" y1="240.969" y2="217.493" gradientUnits="userSpaceOnUse"><stop offset="0" stop-color="#212121"/><stop offset="1" stop-color="#333"/></linearGradient><path d="M-2.2,249.7H1c0,0,15.2-12.7,26.7-24.3c-12.5-0.6-23-1.4-29.9-2.5V249.7z" class="st30"/><linearGradient id="SVGID_23_" x1="-26.674" x2="37.826" y1="204.77" y2="181.294" gradientUnits="userSpaceOnUse"><stop offset="0" stop-color="#212121"/><stop offset="1" stop-color="#333"/></linearGradient><path d="M-2.2,204.5c4-4,7.8-6.9,7.8-6.9l10.7-7.2l6.2-2.7l-24.7-0.6V204.5z" class="st31"/><path d="M22.3,186.3c-6.1,1.2-17-4.2-24.5-8.5v9.4l24.7,0.6l7-3.1C27.4,185.2,25,185.8,22.3,186.3z" class="st29"/><linearGradient id="SVGID_24_" x1="-29.425" x2="35.076" y1="197.214" y2="173.737" gradientUnits="userSpaceOnUse"><stop offset="0" stop-color="#212121"/><stop offset="1" stop-color="#333"/></linearGradient><path d="M22.3,186.3c-6.1,1.2-17-4.2-24.5-8.5v9.4l24.7,0.6l7-3.1C27.4,185.2,25,185.8,22.3,186.3z" class="st32"/><radialGradient id="before_2_" cx="151.797" cy="195.087" r="109.693" gradientTransform="matrix(1.0362 0 0 1.0237 -10.9983 -5.3753)" gradientUnits="userSpaceOnUse"><stop offset="0" stop-color="#2B2B2B"/><stop offset="1" stop-color="#1C1C1C"/></radialGradient><path id="before" d="M233.9,187.4c-7.3,0.3-85-17.4-100.2-23.2c-15.2-5.8-60,1.4-60,1.4l-14.9,6.5l-14.5,22.6 l-4.1-1.9c0.4,7.8-0.6,20.1-9.2,29.2c-1,1.1-2.1,2.2-3.3,3.4c49,2.3,129.1,1.4,146.4-0.7c25.2-3.1,129.5-28.3,129.5-28.3 S241.1,187.1,233.9,187.4z" class="st33"/><g id="clip"><defs><path id="before_1_" d="M233.9,187.4c-7.3,0.3-85-17.4-100.2-23.2c-15.2-5.8-60,1.4-60,1.4l-14.9,6.5l-14.5,22.6l-4.1-1.9 c0.4,7.8-0.6,20.1-9.2,29.2c-1,1.1-2.1,2.2-3.3,3.4c49,2.3,129.1,1.4,146.4-0.7c25.2-3.1,129.5-28.3,129.5-28.3 S241.1,187.1,233.9,187.4z"/></defs><clipPath id="before_3_"><use overflow="visible" xlink:href="#before_1_"/></clipPath><radialGradient id="SVGID_25_" cx="150.68" cy="182.25" r="148.095" gradientUnits="userSpaceOnUse"><stop offset="0" stop-color="#2B2B2B"/><stop offset="1" stop-color="#1C1C1C"/></radialGradient><rect width="356.5" height="100.5" x="-2.5" y="132" class="st34"/></g><path d="M39.7,186.7c0.2,1.3,0.5,3.4,0.6,6.1l4.1,1.9l14.5-22.6l-29.3,12.7C35.5,183.5,39.2,183,39.7,186.7z" class="st29"/><radialGradient id="SVGID_26_" cx="151.797" cy="195.087" r="109.693" gradientTransform="matrix(1.0362 0 0 1.0237 -10.9983 -5.3753)" gradientUnits="userSpaceOnUse"><stop offset="0" stop-color="#2B2B2B"/><stop offset="1" stop-color="#1C1C1C"/></radialGradient><path d="M39.7,186.7c0.2,1.3,0.5,3.4,0.6,6.1l4.1,1.9l14.5-22.6l-29.3,12.7C35.5,183.5,39.2,183,39.7,186.7z" class="st35"/><linearGradient id="SVGID_27_" x1="-20.032" x2="44.469" y1="223.021" y2="199.545" gradientUnits="userSpaceOnUse"><stop offset="0" stop-color="#212121"/><stop offset="1" stop-color="#333"/></linearGradient><path d="M40.2,192.8L30,188l-7.5-0.2l-6.2,2.7l-10.7,7.2c0,0-3.8,2.9-7.8,6.9v18.3c6.9,1.1,17.4,1.9,29.9,2.5 c1.1-1.1,2.2-2.3,3.3-3.4C39.7,212.8,40.6,200.5,40.2,192.8z" class="st36"/><radialGradient id="SVGID_28_" cx="151.797" cy="195.087" r="109.693" gradientTransform="matrix(1.0362 0 0 1.0237 -10.9983 -5.3753)" gradientUnits="userSpaceOnUse"><stop offset="0" stop-color="#2B2B2B"/><stop offset="1" stop-color="#1C1C1C"/></radialGradient><path d="M40.2,192.8L30,188l-7.5-0.2l-6.2,2.7l-10.7,7.2c0,0-3.8,2.9-7.8,6.9v18.3c6.9,1.1,17.4,1.9,29.9,2.5 c1.1-1.1,2.2-2.3,3.3-3.4C39.7,212.8,40.6,200.5,40.2,192.8z" class="st37"/><path d="M29.6,184.8l-7,3.1L30,188l10.2,4.8c-0.1-2.7-0.4-4.8-0.6-6.1C39.2,183,35.5,183.5,29.6,184.8z" class="st29"/><linearGradient id="SVGID_29_" x1="-24.617" x2="39.884" y1="210.423" y2="186.946" gradientUnits="userSpaceOnUse"><stop offset="0" stop-color="#212121"/><stop offset="1" stop-color="#333"/></linearGradient><path d="M29.6,184.8l-7,3.1L30,188l10.2,4.8c-0.1-2.7-0.4-4.8-0.6-6.1C39.2,183,35.5,183.5,29.6,184.8z" class="st38"/><radialGradient id="SVGID_30_" cx="151.797" cy="195.087" r="109.693" gradientTransform="matrix(1.0362 0 0 1.0237 -10.9983 -5.3753)" gradientUnits="userSpaceOnUse"><stop offset="0" stop-color="#2B2B2B"/><stop offset="1" stop-color="#1C1C1C"/></radialGradient><path d="M29.6,184.8l-7,3.1L30,188l10.2,4.8c-0.1-2.7-0.4-4.8-0.6-6.1C39.2,183,35.5,183.5,29.6,184.8z" class="st39"/><g id="cow1"><linearGradient id="SVGID_31_" x1="308.955" x2="301.289" y1="201.081" y2="187.802" gradientUnits="userSpaceOnUse"><stop offset="0" stop-color="#999"/><stop offset=".101" stop-color="#8E8E8E"/><stop offset=".397" stop-color="#737373"/><stop offset=".57" stop-color="#696969"/><stop offset=".995" stop-color="#949494"/></linearGradient><polygon points="294.7 192.5 296 190.9 311.9 189.8 311.6 196.5 310.4 200.2 309.7 200.3 309.3 196.8 305.5 197.6 302.2 197.3 302.1 199.6 301.7 200.5 300.1 196.2 298 193.8 296.8 193.6 295.6 194.4" class="st40"/><linearGradient id="SVGID_32_" x1="312.855" x2="312.855" y1="197.719" y2="189.755" gradientUnits="userSpaceOnUse"><stop offset="0" stop-color="#FFF"/><stop offset=".023" stop-color="#F8F8F8"/><stop offset=".24" stop-color="#BBB"/><stop offset=".425" stop-color="#8E8E8E"/><stop offset=".568" stop-color="#737373"/><stop offset=".651" stop-color="#696969"/><stop offset=".995" stop-color="#FFF"/></linearGradient><path d="M311.9,189.8l1.9,4.1l-0.5,2.2c0,0,1.4,0.4,0.1,1.4s-1-0.5-0.5-1.6c0.2-0.4,0.5-0.5,0.3-1.6 c-0.4-1.7-1.5-3.5-1.5-3.5L311.9,189.8z" class="st41"/></g></g><g id="stars"><circle cx="85" cy="35.2" r="1.7" class="st42"/><circle cx="104.1" cy="49.8" r="1.1" class="st42"/><circle cx="107.9" cy="36.1" r=".5" class="st42"/><circle cx="104.4" cy="20" r="1.3" class="st42"/><circle cx="74" cy="61.1" r=".7" class="st42"/><circle cx="61.4" cy="34.7" r=".5" class="st42"/><circle cx="45.3" cy="16.7" r=".7" class="st42"/><circle cx="114.3" cy="73.5" r=".7" class="st42"/><circle cx="135.4" cy="37" r=".7" class="st42"/><circle cx="177.3" cy="63.4" r=".7" class="st42"/><circle cx="161.4" cy="76.6" r=".7" class="st42"/><circle cx="149.5" cy="55.5" r=".8" class="st42"/><circle cx="76.5" cy="100.2" r=".7" class="st42"/><circle cx="104.9" cy="100.3" r="1.7" class="st42"/><circle cx="133.7" cy="89.7" r=".7" class="st42"/><circle cx="195.4" cy="92" r=".6" class="st42"/><circle cx="219.7" cy="79.3" r=".7" class="st42"/><circle cx="212.2" cy="51.2" r=".7" class="st42"/><circle cx="212.5" cy="26.7" r=".6" class="st42"/><circle cx="223.7" cy="15.4" r="1" class="st42"/><circle cx="229.3" cy="49" r=".4" class="st42"/><circle cx="236.8" cy="69.6" r=".5" class="st42"/><circle cx="237.7" cy="90.8" r=".4" class="st42"/><circle cx="218.9" cy="95.3" r=".4" class="st42"/><circle cx="28.6" cy="34.4" r=".6" class="st42"/><circle cx="241.6" cy="100.5" r="1.3" class="st42"/><circle cx="256.8" cy="112.1" r=".9" class="st42"/><circle cx="259.8" cy="101.2" r=".4" class="st42"/><circle cx="257" cy="88.4" r="1.1" class="st42"/><circle cx="232.8" cy="121.2" r=".6" class="st42"/><circle cx="222.7" cy="100.1" r=".4" class="st42"/><circle cx="209.8" cy="85.7" r=".6" class="st42"/><circle cx="264.9" cy="131" r=".6" class="st42"/><circle cx="281.7" cy="101.9" r=".6" class="st42"/><circle cx="315.2" cy="123" r=".6" class="st42"/><circle cx="302.5" cy="133.5" r=".6" class="st42"/><circle cx="293" cy="116.6" r=".7" class="st42"/><circle cx="234.7" cy="152.3" r=".6" class="st42"/><circle cx="257.4" cy="152.4" r="1.3" class="st42"/><circle cx="280.4" cy="143.9" r=".6" class="st42"/><circle cx="329.6" cy="145.8" r=".5" class="st42"/><circle cx="348.9" cy="135.7" r=".6" class="st42"/><circle cx="343" cy="113.2" r=".6" class="st42"/><circle cx="343.3" cy="93.7" r=".5" class="st42"/><circle cx="352.2" cy="84.6" r=".8" class="st42"/><circle cx="356.6" cy="111.5" r=".3" class="st42"/><circle cx="362.6" cy="127.9" r=".4" class="st42"/><circle cx="363.4" cy="144.8" r=".3" class="st42"/><circle cx="348.4" cy="148.4" r=".3" class="st42"/><circle cx="196.6" cy="99.8" r=".5" class="st42"/><ellipse cx="202.7" cy="133.7" class="st42" rx="1.1" ry="1.1" transform="matrix(0.9947 -0.1029 0.1029 0.9947 -12.682 21.5704)"/><ellipse cx="188.6" cy="125.1" class="st42" rx=".8" ry=".8" transform="matrix(0.9947 -0.1029 0.1029 0.9947 -11.8723 20.0762)"/><ellipse cx="187.1" cy="134.7" class="st42" rx=".4" ry=".4" transform="matrix(0.9947 -0.1029 0.1029 0.9947 -12.8657 19.9649)"/><ellipse cx="190.6" cy="145.4" class="st42" rx=".9" ry=".9" transform="matrix(0.9947 -0.1029 0.1029 0.9947 -13.9536 20.3859)"/><ellipse cx="208.4" cy="115.2" class="st42" rx=".5" ry=".5" transform="matrix(0.9947 -0.1029 0.1029 0.9947 -10.7496 22.0604)"/><ellipse cx="218.9" cy="132.4" class="st42" rx=".4" ry=".4" transform="matrix(0.9947 -0.1029 0.1029 0.9947 -12.4604 23.2292)"/><ellipse cx="231.2" cy="143.5" class="st42" rx=".5" ry=".5" transform="matrix(0.9947 -0.1029 0.1029 0.9947 -13.5409 24.5511)"/><ellipse cx="180" cy="109.6" class="st42" rx=".5" ry=".5" transform="matrix(0.9947 -0.1029 0.1029 0.9947 -10.3222 19.1099)"/><ellipse cx="168.2" cy="136" class="st42" rx=".5" ry=".5" transform="matrix(0.9947 -0.1029 0.1029 0.9947 -13.1073 18.0356)"/><ellipse cx="137.7" cy="121" class="st42" rx=".5" ry=".5" transform="matrix(0.9947 -0.1029 0.1029 0.9947 -11.7161 14.8166)"/><ellipse cx="147.7" cy="110.8" class="st42" rx=".5" ry=".5" transform="matrix(0.9947 -0.1029 0.1029 0.9947 -10.6188 15.7843)"/><ellipse cx="157.3" cy="124.4" class="st42" rx=".6" ry=".6" transform="matrix(0.9947 -0.1029 0.1029 0.9947 -11.9693 16.8452)"/><ellipse cx="204" cy="88.7" class="st42" rx=".5" ry=".5" transform="matrix(0.9947 -0.1029 0.1029 0.9947 -8.0478 21.4617)"/><ellipse cx="184.6" cy="90.7" class="st42" rx="1.1" ry="1.1" transform="matrix(0.9947 -0.1029 0.1029 0.9947 -8.3501 19.4754)"/><ellipse cx="165.6" cy="100" class="st42" rx=".5" ry=".5" transform="matrix(0.9947 -0.1029 0.1029 0.9947 -9.4076 17.5772)"/><ellipse cx="123.4" cy="102.7" class="st42" rx=".4" ry=".4" transform="matrix(0.9947 -0.1029 0.1029 0.9947 -9.9134 13.2416)"/><ellipse cx="107.7" cy="113.1" class="st42" rx=".5" ry=".5" transform="matrix(0.9947 -0.1029 0.1029 0.9947 -11.0658 11.6836)"/><ellipse cx="114.8" cy="131.7" class="st42" rx=".5" ry=".5" transform="matrix(0.9947 -0.1029 0.1029 0.9947 -12.9483 12.5094)"/><ellipse cx="116.3" cy="148.5" class="st42" rx=".4" ry=".4" transform="matrix(0.9947 -0.1029 0.1029 0.9947 -14.6626 12.7545)"/><ellipse cx="109.5" cy="157" class="st42" rx=".7" ry=".7" transform="matrix(0.9947 -0.1029 0.1029 0.9947 -15.5782 12.0986)"/><ellipse cx="103.3" cy="134.4" class="st42" rx=".3" ry=".3" transform="matrix(0.9947 -0.1029 0.1029 0.9947 -13.2856 11.3419)"/><ellipse cx="96.7" cy="120.9" class="st42" rx=".4" ry=".4" transform="matrix(0.9947 -0.1029 0.1029 0.9947 -11.9312 10.591)"/><ellipse cx="94.5" cy="106.5" class="st42" rx=".3" ry=".3" transform="matrix(0.9947 -0.1029 0.1029 0.9947 -10.4614 10.2953)"/><ellipse cx="107.1" cy="102.1" class="st42" rx=".3" ry=".3" transform="matrix(0.9947 -0.1029 0.1029 0.9947 -9.939 11.5597)"/><ellipse cx="241.3" cy="130.3" class="st42" rx=".4" ry=".4" transform="matrix(0.9947 -0.1029 0.1029 0.9947 -12.1253 25.521)"/><ellipse cx="168.2" cy="43.7" class="st42" rx=".9" ry=".9" transform="matrix(0.9947 -0.1029 0.1029 0.9947 -3.6057 17.5465)"/><ellipse cx="157.1" cy="36.9" class="st42" rx=".6" ry=".6" transform="matrix(0.9947 -0.1029 0.1029 0.9947 -2.9629 16.3602)"/><ellipse cx="155.8" cy="44.5" class="st42" rx=".3" ry=".3" transform="matrix(0.9947 -0.1029 0.1029 0.9947 -3.7516 16.2718)"/><ellipse cx="158.6" cy="53" class="st42" rx=".7" ry=".7" transform="matrix(0.9947 -0.1029 0.1029 0.9947 -4.6153 16.6061)"/><ellipse cx="172.8" cy="29" class="st42" rx=".4" ry=".4" transform="matrix(0.9947 -0.1029 0.1029 0.9947 -2.0716 17.9355)"/><ellipse cx="181.1" cy="42.7" class="st42" rx=".3" ry=".3" transform="matrix(0.9947 -0.1029 0.1029 0.9947 -3.4298 18.8634)"/><ellipse cx="190.8" cy="51.5" class="st42" rx=".4" ry=".4" transform="matrix(0.9947 -0.1029 0.1029 0.9947 -4.2877 19.9129)"/><ellipse cx="150.3" cy="24.6" class="st42" rx=".4" ry=".4" transform="matrix(0.9947 -0.1029 0.1029 0.9947 -1.7323 15.5931)"/><ellipse cx="140.9" cy="45.6" class="st42" rx=".4" ry=".4" transform="matrix(0.9947 -0.1029 0.1029 0.9947 -3.9434 14.7402)"/><ellipse cx="116.7" cy="33.6" class="st42" rx=".4" ry=".4" transform="matrix(0.9947 -0.1029 0.1029 0.9947 -2.8389 12.1847)"/><ellipse cx="124.5" cy="25.5" class="st42" rx=".4" ry=".4" transform="matrix(0.9947 -0.1029 0.1029 0.9947 -1.9678 12.9529)"/><ellipse cx="132.2" cy="36.4" class="st42" rx=".5" ry=".5" transform="matrix(0.9947 -0.1029 0.1029 0.9947 -3.0399 13.7951)"/><ellipse cx="169.3" cy="8" class="st42" rx=".4" ry=".4" transform="matrix(0.9947 -0.1029 0.1029 0.9947 7.330103e-02 17.4602)"/><ellipse cx="153.8" cy="9.6" class="st42" rx=".9" ry=".9" transform="matrix(0.9947 -0.1029 0.1029 0.9947 -0.1666 15.8832)"/><ellipse cx="138.8" cy="16.9" class="st42" rx=".4" ry=".4" transform="matrix(0.9947 -0.1029 0.1029 0.9947 -1.0062 14.3763)"/><ellipse cx="66" cy="8.6" class="st42" rx=".3" ry=".3" transform="matrix(0.9947 -0.1029 0.1029 0.9947 -0.5379 6.8381)"/><ellipse cx="92.8" cy="27.4" class="st42" rx=".4" ry=".4" transform="matrix(0.9947 -0.1029 0.1029 0.9947 -2.3226 9.6973)"/><ellipse cx="98.4" cy="42.2" class="st42" rx=".4" ry=".4" transform="matrix(0.9947 -0.1029 0.1029 0.9947 -3.8172 10.3529)"/><ellipse cx="99.6" cy="55.5" class="st42" rx=".3" ry=".3" transform="matrix(0.9947 -0.1029 0.1029 0.9947 -5.1781 10.5475)"/><ellipse cx="94.2" cy="62.2" class="st42" rx=".6" ry=".6" transform="matrix(0.9947 -0.1029 0.1029 0.9947 -5.905 10.0268)"/><ellipse cx="89.3" cy="44.3" class="st42" rx=".2" ry=".2" transform="matrix(0.9947 -0.1029 0.1029 0.9947 -4.0849 9.4261)"/><ellipse cx="84.1" cy="28.6" class="st42" rx=".3" ry=".3" transform="matrix(0.9947 -0.1029 0.1029 0.9947 -2.4951 8.8034)"/><ellipse cx="82.4" cy="22.2" class="st42" rx=".2" ry=".2" transform="matrix(0.9947 -0.1029 0.1029 0.9947 -1.8428 8.5952)"/><ellipse cx="92.3" cy="18.6" class="st42" rx=".2" ry=".2" transform="matrix(0.9947 -0.1029 0.1029 0.9947 -1.428 9.5989)"/><ellipse cx="198.9" cy="41" class="st42" rx=".3" ry=".3" transform="matrix(0.9947 -0.1029 0.1029 0.9947 -3.1638 20.6828)"/><ellipse cx="292.8" cy="85.7" class="st42" rx=".9" ry=".9" transform="matrix(0.9947 -0.1029 0.1029 0.9947 -7.2604 30.5913)"/><ellipse cx="372.7" cy="32.7" class="st42" rx=".6" ry=".6" transform="matrix(0.9947 -0.1029 0.1029 0.9947 -1.3911 38.5305)"/><ellipse cx="371.5" cy="40.3" class="st42" rx=".3" ry=".3" transform="matrix(0.9947 -0.1029 0.1029 0.9947 -2.1798 38.4422)"/><ellipse cx="374.3" cy="48.9" class="st42" rx=".7" ry=".7" transform="matrix(0.9947 -0.1029 0.1029 0.9947 -3.0434 38.7764)"/><ellipse cx="297.4" cy="71" class="st42" rx=".4" ry=".4" transform="matrix(0.9947 -0.1029 0.1029 0.9947 -5.7263 30.9803)"/><ellipse cx="305.7" cy="84.6" class="st42" rx=".3" ry=".3" transform="matrix(0.9947 -0.1029 0.1029 0.9947 -7.0845 31.9082)"/><ellipse cx="315.4" cy="93.5" class="st42" rx=".4" ry=".4" transform="matrix(0.9947 -0.1029 0.1029 0.9947 -7.9423 32.9577)"/><ellipse cx="365.9" cy="20.4" class="st42" rx=".4" ry=".4" transform="matrix(0.9947 -0.1029 0.1029 0.9947 -0.1605 37.7634)"/><ellipse cx="356.5" cy="41.4" class="st42" rx=".4" ry=".4" transform="matrix(0.9947 -0.1029 0.1029 0.9947 -2.3715 36.9105)"/><ellipse cx="332.3" cy="29.5" class="st42" rx=".4" ry=".4" transform="matrix(0.9947 -0.1029 0.1029 0.9947 -1.2671 34.355)"/><ellipse cx="340.2" cy="21.4" class="st42" rx=".4" ry=".4" transform="matrix(0.9947 -0.1029 0.1029 0.9947 -0.3959 35.1232)"/><ellipse cx="347.8" cy="32.2" class="st42" rx=".5" ry=".5" transform="matrix(0.9947 -0.1029 0.1029 0.9947 -1.4681 35.9654)"/><ellipse cx="293.8" cy="50" class="st42" rx=".4" ry=".4" transform="matrix(0.9947 -0.1029 0.1029 0.9947 -3.5814 30.505)"/><ellipse cx="369.5" cy="5.4" class="st42" rx=".9" ry=".9" transform="matrix(0.9947 -0.1029 0.1029 0.9947 1.4052 38.0536)"/><ellipse cx="354.5" cy="12.8" class="st42" rx=".4" ry=".4" transform="matrix(0.9947 -0.1029 0.1029 0.9947 0.5656 36.5466)"/><ellipse cx="320.9" cy="15" class="st42" rx=".3" ry=".3" transform="matrix(0.9947 -0.1029 0.1029 0.9947 0.1641 33.1046)"/><ellipse cx="308.5" cy="23.2" class="st42" rx=".4" ry=".4" transform="matrix(0.9947 -0.1029 0.1029 0.9947 -0.7508 31.8676)"/><ellipse cx="314.1" cy="38" class="st42" rx=".4" ry=".4" transform="matrix(0.9947 -0.1029 0.1029 0.9947 -2.2453 32.5233)"/><ellipse cx="315.3" cy="51.3" class="st42" rx=".3" ry=".3" transform="matrix(0.9947 -0.1029 0.1029 0.9947 -3.6063 32.7178)"/><ellipse cx="309.9" cy="58.1" class="st42" rx=".6" ry=".6" transform="matrix(0.9947 -0.1029 0.1029 0.9947 -4.3332 32.1971)"/><ellipse cx="305" cy="40.2" class="st42" rx=".2" ry=".2" transform="matrix(0.9947 -0.1029 0.1029 0.9947 -2.5131 31.5964)"/><ellipse cx="299.7" cy="29.4" class="st42" rx=".3" ry=".3" transform="matrix(0.9947 -0.1029 0.1029 0.9947 -1.4378 31.0002)"/><ellipse cx="298" cy="18" class="st42" rx=".2" ry=".2" transform="matrix(0.9947 -0.1029 0.1029 0.9947 -0.271 30.7655)"/><ellipse cx="308" cy="14.5" class="st42" rx=".2" ry=".2" transform="matrix(0.9947 -0.1029 0.1029 0.9947 0.1438 31.7693)"/><ellipse cx="323.5" cy="82.9" class="st42" rx=".3" ry=".3" transform="matrix(0.9947 -0.1029 0.1029 0.9947 -6.8185 33.7276)"/><ellipse cx="363.7" cy="69.6" class="st42" rx=".4" ry=".4" transform="matrix(0.9947 -0.1029 0.1029 0.9947 -5.2276 37.7982)"/><ellipse cx="339.5" cy="57.6" class="st42" rx=".4" ry=".4" transform="matrix(0.9947 -0.1029 0.1029 0.9947 -4.1231 35.2427)"/><ellipse cx="355" cy="60.3" class="st42" rx=".5" ry=".5" transform="matrix(0.9947 -0.1029 0.1029 0.9947 -4.3241 36.8531)"/><circle cx="17.3" cy="25.2" r=".6" class="st42"/><circle cx="31.8" cy="18.9" r=".6" class="st42"/><circle cx="18.5" cy="33" r=".5" class="st42"/><ellipse cx="24.6" cy="66.9" class="st42" rx="1.1" ry="1.1" transform="matrix(0.9947 -0.1029 0.1029 0.9947 -6.7518 2.8895)"/><ellipse cx="10.6" cy="58.3" class="st42" rx=".8" ry=".8" transform="matrix(0.9947 -0.1029 0.1029 0.9947 -5.9421 1.3953)"/><ellipse cx="9" cy="67.9" class="st42" rx=".4" ry=".4" transform="matrix(0.9947 -0.1029 0.1029 0.9947 -6.9355 1.2839)"/><ellipse cx="30.3" cy="48.4" class="st42" rx=".5" ry=".5" transform="matrix(0.9947 -0.1029 0.1029 0.9947 -4.8194 3.3794)"/><ellipse cx="25.9" cy="21.9" class="st42" rx=".5" ry=".5" transform="matrix(0.9947 -0.1029 0.1029 0.9947 -2.1176 2.7808)"/><ellipse cx="6.5" cy="23.8" class="st42" rx="1.1" ry="1.1" transform="matrix(0.9947 -0.1029 0.1029 0.9947 -2.4199 0.7945)"/><circle cx="6.3" cy="84.7" r="1.7" class="st42"/><ellipse cx="9.2" cy="97.5" class="st42" rx=".5" ry=".5" transform="matrix(0.9947 -0.1029 0.1029 0.9947 -9.9819 1.4601)"/><ellipse cx="8.5" cy="86.5" class="st42" rx=".3" ry=".3" transform="matrix(0.9947 -0.1029 0.1029 0.9947 -8.8551 1.3362)"/><circle cx="202.7" cy="68.7" r=".7" class="st42"/><circle cx="142.9" cy="144.3" r="1.7" class="st42"/><ellipse cx="259.2" cy="67.7" class="st42" rx=".9" ry=".9" transform="matrix(0.9947 -0.1029 0.1029 0.9947 -5.5924 27.0387)"/><ellipse cx="248.1" cy="40.9" class="st42" rx=".6" ry=".6" transform="matrix(0.9947 -0.1029 0.1029 0.9947 -2.8914 25.7462)"/><ellipse cx="246.8" cy="48.5" class="st42" rx=".3" ry=".3" transform="matrix(0.9947 -0.1029 0.1029 0.9947 -3.6801 25.6579)"/><ellipse cx="241.3" cy="28.6" class="st42" rx=".4" ry=".4" transform="matrix(0.9947 -0.1029 0.1029 0.9947 -1.6608 24.9791)"/><ellipse cx="260.3" cy="12" class="st42" rx=".4" ry=".4" transform="matrix(0.9947 -0.1029 0.1029 0.9947 0.1448 26.8462)"/><ellipse cx="244.8" cy="13.6" class="st42" rx=".9" ry=".9" transform="matrix(0.9947 -0.1029 0.1029 0.9947 -9.514254e-02 25.2693)"/><ellipse cx="232.2" cy="91.7" class="st42" rx=".9" ry=".9" transform="matrix(0.9947 -0.1029 0.1029 0.9947 -8.2056 24.3875)"/><ellipse cx="221.1" cy="84.9" class="st42" rx=".6" ry=".6" transform="matrix(0.9947 -0.1029 0.1029 0.9947 -7.5628 23.2013)"/><ellipse cx="219.8" cy="92.5" class="st42" rx=".3" ry=".3" transform="matrix(0.9947 -0.1029 0.1029 0.9947 -8.3515 23.1129)"/><ellipse cx="214.3" cy="72.6" class="st42" rx=".4" ry=".4" transform="matrix(0.9947 -0.1029 0.1029 0.9947 -6.3322 22.4342)"/><ellipse cx="233.3" cy="56" class="st42" rx=".4" ry=".4" transform="matrix(0.9947 -0.1029 0.1029 0.9947 -4.5266 24.3013)"/><ellipse cx="217.8" cy="57.6" class="st42" rx=".9" ry=".9" transform="matrix(0.9947 -0.1029 0.1029 0.9947 -4.7665 22.7243)"/><ellipse cx="289.2" cy="88.7" class="st42" rx=".9" ry=".9" transform="matrix(0.9947 -0.1029 0.1029 0.9947 -7.5942 30.2374)"/><ellipse cx="278.1" cy="81.9" class="st42" rx=".6" ry=".6" transform="matrix(0.9947 -0.1029 0.1029 0.9947 -6.9514 29.0512)"/><ellipse cx="276.8" cy="89.5" class="st42" rx=".3" ry=".3" transform="matrix(0.9947 -0.1029 0.1029 0.9947 -7.7401 28.9628)"/><ellipse cx="271.3" cy="69.6" class="st42" rx=".4" ry=".4" transform="matrix(0.9947 -0.1029 0.1029 0.9947 -5.7208 28.2841)"/><ellipse cx="290.3" cy="53" class="st42" rx=".4" ry=".4" transform="matrix(0.9947 -0.1029 0.1029 0.9947 -3.9152 30.1512)"/><ellipse cx="274.8" cy="54.6" class="st42" rx=".9" ry=".9" transform="matrix(0.9947 -0.1029 0.1029 0.9947 -4.1552 28.5742)"/></g><g id="houses_1_"><g id="houses"><g><polygon points="224.8 160.8 229.9 158 237.3 163 236 176.3 224.4 176.3" class="st43"/><polyline points="224.8 160.8 222.8 163.4 222.9 177 224.5 177 224.8 160.8 224.8 160.8 224.8 160.8" class="st27"/><polygon points="232.1 165.2 232.2 167.8 233.3 167.8 233.4 165.2" class="st27"/><polygon points="232.2 165.8 232.2 167.8 233.3 167.8 233.3 165.8" class="st28"/></g><g><polygon points="219.7 166.6 216.1 164.7 211.1 168.1 211.9 177.6 220 177.3" class="st43"/><polyline points="219.7 166.6 221 168.4 220.9 177.2 219.8 177.2 219.7 166.6 219.7 166.6 219.7 166.6" class="st27"/><polygon points="214.7 169.6 214.6 171.4 213.8 171.4 213.8 169.6" class="st27"/><polygon points="214.6 170.1 214.6 171.4 213.8 171.4 213.8 170" class="st28"/></g><g><polygon points="239.6 164 243 162.7 253.2 165.6 251.9 175.7 239.2 176.1" class="st43"/><polyline points="239.6 164 237.5 165.9 237.3 176.4 239.3 176.3 239.6 164 239.6 164 239.6 164" class="st27"/><polygon points="247.6 167.3 247.7 169.2 248.9 169.2 249 167.3" class="st27"/><polygon points="247.7 167.7 247.7 169.2 248.9 169.2 248.9 167.7" class="st28"/></g></g></g></svg>